<svg xmlns="http://www.w3.org/2000/svg" width="48" height="48" viewBox="0 0 48 48" role="img" aria-label="AI Resume Builder Icon">
  <circle cx="24" cy="24" r="22" fill="none" stroke="#0284c7" stroke-width="2" opacity="0.35"/>
  <circle cx="24" cy="24" r="16" fill="none" stroke="#0284c7" stroke-width="2" opacity="0.18"/>
  <circle cx="8" cy="24" r="3" fill="#0284c7" opacity="0.9"/>
  <circle cx="24" cy="6" r="3" fill="#0284c7" opacity="0.9"/>
  <circle cx="42" cy="18" r="3" fill="#0284c7" opacity="0.7"/>
  <circle cx="28" cy="42" r="3" fill="#0284c7" opacity="0.6"/>
  <path d="M8 24 C10 16, 16 10, 24 8 C32 6, 40 10, 42 18" fill="none" stroke="#0284c7" stroke-width="2" stroke-linecap="round" opacity="0.55"/>
  <path d="M42 26 C40 34, 34 40, 26 42 C18 44, 10 40, 8 32" fill="none" stroke="#0284c7" stroke-width="2" stroke-linecap="round" opacity="0.35"/>
  <path d="M16 34 L32 18" fill="none" stroke="#0284c7" stroke-width="4" stroke-linecap="round"/>
  <path d="M32 18 L38 12" fill="none" stroke="#0284c7" stroke-width="4" stroke-linecap="round"/>
  <rect x="14" y="36" width="18" height="3" rx="1.5" fill="#0284c7" opacity="0.25"/>
  <rect x="14" y="41" width="12" height="3" rx="1.5" fill="#0284c7" opacity="0.2"/>
</svg>